<svg width="1400" height="520" viewBox="0 0 1400 520" fill="none" xmlns="http://www.w3.org/2000/svg" role="img" aria-labelledby="title desc">
  <title id="title">Deep Space Technical Dossier for Muhammad Khalfani Shaquille Indrajaya</title>
  <desc id="desc">A minimalist interstellar GitHub profile banner with star-chart geometry, technical metadata, and systems architecture positioning.</desc>
  <defs>
    <linearGradient id="bg" x1="0" y1="0" x2="1400" y2="520" gradientUnits="userSpaceOnUse">
      <stop offset="0" stop-color="#080B10"/>
      <stop offset="0.48" stop-color="#0D1117"/>
      <stop offset="1" stop-color="#10151D"/>
    </linearGradient>
    <linearGradient id="line" x1="174" y1="52" x2="1250" y2="445" gradientUnits="userSpaceOnUse">
      <stop stop-color="#D8F7FF" stop-opacity="0.12"/>
      <stop offset="0.52" stop-color="#7DD3FC" stop-opacity="0.55"/>
      <stop offset="1" stop-color="#F6C56F" stop-opacity="0.18"/>
    </linearGradient>
    <radialGradient id="aura" cx="0" cy="0" r="1" gradientUnits="userSpaceOnUse" gradientTransform="translate(968 205) rotate(128) scale(389 226)">
      <stop stop-color="#2DD4BF" stop-opacity="0.20"/>
      <stop offset="0.42" stop-color="#38BDF8" stop-opacity="0.08"/>
      <stop offset="1" stop-color="#0D1117" stop-opacity="0"/>
    </radialGradient>
    <pattern id="grid" width="52" height="52" patternUnits="userSpaceOnUse">
      <path d="M52 0H0V52" stroke="#E5F8FF" stroke-opacity="0.035"/>
    </pattern>
    <filter id="soft" x="-20%" y="-20%" width="140%" height="140%">
      <feGaussianBlur stdDeviation="1.2"/>
    </filter>
  </defs>

  <rect width="1400" height="520" rx="0" fill="url(#bg)"/>
  <rect width="1400" height="520" fill="url(#grid)"/>
  <rect width="1400" height="520" fill="url(#aura)"/>

  <path d="M70 78H420M70 442H1328M1036 73H1328" stroke="#E6EDF3" stroke-opacity="0.12"/>
  <path d="M72 78V442M1328 73V442" stroke="#E6EDF3" stroke-opacity="0.10"/>
  <path d="M746 91C926 33 1140 85 1230 214C1308 326 1224 424 1047 430C834 438 615 310 580 181C557 96 626 54 746 91Z" stroke="url(#line)" stroke-width="1.4"/>
  <path d="M600 374C732 238 922 159 1137 137" stroke="#9AE6F7" stroke-opacity="0.22"/>
  <path d="M700 119C816 251 966 343 1160 401" stroke="#F6C56F" stroke-opacity="0.16"/>

  <g opacity="0.88">
    <circle cx="746" cy="91" r="3.5" fill="#BFF7FF"/>
    <circle cx="922" cy="159" r="3" fill="#E6EDF3"/>
    <circle cx="1137" cy="137" r="3" fill="#F6C56F"/>
    <circle cx="1160" cy="401" r="3.2" fill="#BFF7FF"/>
    <circle cx="580" cy="181" r="2.8" fill="#E6EDF3"/>
    <circle cx="1047" cy="430" r="3.2" fill="#E6EDF3"/>
    <circle cx="968" cy="205" r="5.5" fill="#7DD3FC" filter="url(#soft)"/>
  </g>

  <g fill="#E6EDF3" opacity="0.34">
    <circle cx="178" cy="149" r="1.4"/>
    <circle cx="231" cy="338" r="1.1"/>
    <circle cx="325" cy="104" r="1.2"/>
    <circle cx="456" cy="431" r="1.1"/>
    <circle cx="527" cy="62" r="1.3"/>
    <circle cx="663" cy="468" r="1.2"/>
    <circle cx="811" cy="66" r="1.1"/>
    <circle cx="1260" cy="317" r="1.4"/>
    <circle cx="1192" cy="91" r="1.2"/>
    <circle cx="1114" cy="478" r="1.1"/>
  </g>

  <text x="90" y="112" fill="#7DD3FC" font-family="ui-monospace, SFMono-Regular, Menlo, Consolas, monospace" font-size="13" letter-spacing="3">PROFILE / TECHNICAL DOSSIER</text>
  <text x="90" y="177" fill="#F8FAFC" font-family="Segoe UI, ui-sans-serif, system-ui, sans-serif" font-size="44" font-weight="650">Muhammad Khalfani</text>
  <text x="90" y="225" fill="#F8FAFC" font-family="Segoe UI, ui-sans-serif, system-ui, sans-serif" font-size="44" font-weight="650">Shaquille Indrajaya</text>
  <text x="92" y="266" fill="#B9C4D0" font-family="Segoe UI, ui-sans-serif, system-ui, sans-serif" font-size="18">AI Engineering / Backend Systems / Systems Architecture / Cloud / DevOps</text>

  <g font-family="ui-monospace, SFMono-Regular, Menlo, Consolas, monospace" font-size="13">
    <text x="92" y="329" fill="#E6EDF3">INSTITUTE</text>
    <text x="214" y="329" fill="#93A4B7">Institut Teknologi Bandung</text>
    <text x="92" y="361" fill="#E6EDF3">PROGRAM</text>
    <text x="214" y="361" fill="#93A4B7">Information Systems and Technology</text>
    <text x="92" y="393" fill="#E6EDF3">GRAD ETA</text>
    <text x="214" y="393" fill="#93A4B7">August 2027</text>
  </g>

  <g transform="translate(904 104)">
    <rect x="0" y="0" width="360" height="286" rx="8" fill="#0B1017" fill-opacity="0.68" stroke="#D8F7FF" stroke-opacity="0.14"/>
    <text x="24" y="42" fill="#F6C56F" font-family="ui-monospace, SFMono-Regular, Menlo, Consolas, monospace" font-size="12" letter-spacing="2">SYSTEMS INDEX</text>
    <path d="M24 62H336" stroke="#E6EDF3" stroke-opacity="0.12"/>
    <g font-family="Segoe UI, ui-sans-serif, system-ui, sans-serif" font-size="16" fill="#E6EDF3">
      <text x="24" y="100">Agentic RAG</text>
      <text x="24" y="138">Multimodal AI</text>
      <text x="24" y="176">Backend Systems</text>
      <text x="24" y="214">Cloud-Native Execution</text>
      <text x="24" y="252">Applied Automation</text>
    </g>
    <g stroke="#7DD3FC" stroke-opacity="0.45">
      <path d="M230 95H318"/>
      <path d="M230 133H292"/>
      <path d="M230 171H328"/>
      <path d="M230 209H304"/>
      <path d="M230 247H316"/>
    </g>
    <g fill="#7DD3FC">
      <circle cx="230" cy="95" r="2.5"/>
      <circle cx="230" cy="133" r="2.5"/>
      <circle cx="230" cy="171" r="2.5"/>
      <circle cx="230" cy="209" r="2.5"/>
      <circle cx="230" cy="247" r="2.5"/>
    </g>
  </g>

  <text x="90" y="471" fill="#58677A" font-family="ui-monospace, SFMono-Regular, Menlo, Consolas, monospace" font-size="12">RA 21h 43m / DEC +07deg 16' / BUILDING AI-NATIVE SYSTEMS AS AUDITABLE ARCHITECTURE</text>
</svg>
